<svg xmlns="http://www.w3.org/2000/svg" xmlns:xlink="http://www.w3.org/1999/xlink" version="1.1" x="0px" y="0px" width="200px" height="114.881px" viewBox="0 0 200 114.881" enable-background="new 0 0 200 114.881" xml:space="preserve"><style>.style0{fill:	#231F20;}</style><g><path d="M78.063 45.179c2.151 1 5.004-2.608 7.491-5.435c3.042-3.461 5.209-6.35 4.777-7.494 c-0.432-1.143-6.46-2.166-8.908-2.048c-1.632 0.077-3.715 1.449-4.724 5.211C75.562 39.7 77.1 44.8 78.1 45.179z" class="style0"/><path d="M167.223 101.246c26.992-5.316 18.408-35.549 12.461-33.007c-0.444 0.188-1.033 10.339-11.752 18.5 c-7.594 5.796-16.371 7.28-31.169 6.019c-7.059-0.389-20.193-3.764-29.289-5.49c1.873-3.608 3.459-7.19 4.715-10.486 c6.025-15.722 8.212-25.09 7.643-26.692c-0.425-1.177-0.526-1.376-3.351-2.212c-2.819-0.837-2.96-0.535-3.65-0.065 c-0.646 0.44-1.388 3.643-1.783 4.512c-0.731-0.399-5.082-5.208-15.159-0.618c-8.403 3.824-10.72 14.644-11.188 15.7 c-0.468 1.033-5.765 6.436-8.536 6.436c-0.384-0.005-1.962-6.278 1.521-12.29c3.479-6.009 7.336-7.107 5.907-8.552 c-1.953-1.969-6.559-3.033-12.509-3.679c-5.956-0.647-10.358 0.344-10.822 0.341c-0.118-0.74-0.485-3.242-2.679-6.766 c-2.192-3.522-5.427-4.717-5.398-4.884c0.027-0.167 7.018-3.964 9.429-9.704c2.412-5.738 3.049-11.906-1.885-15.456 c-4.929-3.546-9.299-1.975-9.576-2.195c-0.283-0.221 2.382-4.465 0.039-6.674c-2.347-2.208-4.794-1.61-5.948-1.3 C43.08 3 38.9 5.6 34 7.945c-4.905 2.307-11.003 4.77-13.557 2.455c-4.214-3.819 2.73-9.538 2.231-9.969 c-0.541-0.464-6.928-1.334-10.265 2.406c-2.788 3.123-3.621 8.631-1.374 11.775c4.114 5.8 13.3 4.2 21.7 0.3 c4.799-2.208 9.859-4.845 10.332-4.823c0.331 0.016-0.376 1.736-0.589 1.994c-0.229 0.275-9.767 3.934-15.237 7.6 c-5.786 3.924-20.004 11.086-25.47 28.017c-4.753 14.7 0.3 33.6 12 34.646c10.783 0.9 18.049-17.983 20.854-25.896 c2.812-7.917 4.394-10.545 5.033-12.612c3.771-0.984 7.423-0.589 10.2 3.111c2.798 3.7 2.6 4.1 2.2 4.4 c-0.427 0.269-7.387 1.442-13.434 6.768c-5.547 4.884-9.021 11.464-8.162 17.842c0.5 3.7 4.3 6.5 8.9 6.5 c11.99 0 18.759-14.448 20.64-22.577c0.724-3.126 0.678-4.355 0.799-4.881c0.884-0.096 1.733-0.096 3.3 0.1 c1.569 0.2 3.2 0.5 3.4 0.72c0.152 0.239-2.17 3.375-2.684 10.104c-0.514 6.8 3 13.3 8 14 c5.047 0.7 12.458-7.1 12.881-7.065c0 1.3 1.6 5 4.9 6.409c4.93 2.6 9.4 0.5 9.6 1 c0.082 0.236-0.826 2.387-2.421 5.306c-3.08-0.425-10.791-1.05-18.336 0.973c-9.552 2.559-16.523 8.907-16.381 17.6 c0.08 5 4.7 10.7 12.1 10.725c12.168 0 22.612-11.922 29.701-23.886C119.229 94.9 147.8 105.1 167.2 101.246z M29.091 48.558c-4.662 12.37-11.616 26.044-12.5 25.89c-3.901-0.684-4.681-20.974 3.667-35.061 c8.138-13.723 17.255-19.146 17.811-19.046C38.452 20.4 33.8 36.2 29.1 48.558z M42.821 35.3 c-0.463-0.081 4.21-16.98 5.34-18.411c0.241-0.302 7.389-1.733 7.1 5.092C54.809 30.3 44.1 35.5 42.8 35.301z M48.765 69.825c-4.712 6.737-9.366 8.229-10.131 7.86c-0.768-0.36-2.368-8.346 3.37-14.814c5.147-5.813 10.778-7.183 11.21-7.106 C53.631 55.8 53.9 62.5 48.8 69.825z M88.663 98.704c-6.711 6.867-11.324 9.47-15.851 7.7 c-3.234-1.279-1.815-7.867 5.058-13.166c5.081-3.92 13.571-3.821 17.89-3.81C93.797 92.5 91.4 96 88.7 98.704z M93.085 66.546c1.168-6.941 9.031-12.509 16.156-9.108c0 2.402-6.071 16.919-6.612 17.3 C98.679 76.8 91.9 73.5 93.1 66.546z" class="style0"/><path d="M143.389 88.828c13.261 1.1 27.02-9.122 34.189-29.812c4.987-14.381 3.559-28.985 0.608-37.449 c2.612-1.765 4.838-4.596 4.838-8.159c0-2.502-1.932-4.079-3.341-4.043c-3.312 0.084-3.221 3.269-2.902 3.1 c1.115-0.744 2.573-0.881 2.4 0.835c-0.157 1.93-2.188 3.556-3.018 3.783c-2.521-6.092-6.798-8.864-12.302-8.752 c-7.326 0.151-11.889 8.504-8.968 14.562c3.646 7.6 11.9 4.9 15.8 2.712c1.422 8.2 1.5 19.861-3.523 31.9 c-4.413 10.61-11.762 24.34-21.748 23.493c-8.289-0.702-12.671-16.615-8.572-35.59c3.687-17.079 12.362-27.393 15.657-29.566 c1.253-0.825-2.552-3.042-6.349-1.557c-5.204 2.042-19.544 14.15-22.682 36.744C119.915 77 131 87.8 143.4 88.828z M160.975 19.25c-2.31-2.796-0.471-7.616 2.537-7.71c2.54-0.083 3.9 3.2 4.9 5.63c0.359 0.8 0.7 1.9 1.1 3.1 C166.38 21.5 163.2 21.9 161 19.25z" class="style0"/><path d="M190.042 29.482l-0.239-0.054l0.043-0.276c-0.01-2.442-0.361-4.507-1.45-4.818 c-1.328-0.366-4.715 2.882-4.772 4.653c-0.087 1.6 1 3.1 2.3 4.232c-0.026 3.308-0.642 7.933-1.522 10.5 c0 0 0 0 0.1 0.035c0.407 0.8 1.4 0.8 1.824-0.717c0.823-2.624 1.948-5.304 2.701-8.053 c2.168 1 3.4 2.7 3.2 6.235c-0.239 3.93-1.646 4.981-2.791 4.362c-0.55-0.315-0.789-0.905-0.75-1.502 c0.079-0.601 0.612-1.188 1.527-1.389c1.473-0.386 1.195-2.554 0.853-4.035c-0.246-0.908-0.524-0.952-1.615-0.177 c-2.646 1.716-3.467 7.554-0.564 9.186c3.092 1.7 11.116-1.656 11.111-8.082C199.971 34.2 193.9 30.8 190 29.482z" class="style0"/></g></svg>