<?xml version="1.0" encoding="utf-8"?>
<!-- Generator: Adobe Illustrator 16.0.4, SVG Export Plug-In . SVG Version: 6.00 Build 0)  -->
<!DOCTYPE svg PUBLIC "-//W3C//DTD SVG 1.1//EN" "http://www.w3.org/Graphics/SVG/1.1/DTD/svg11.dtd">
<svg version="1.1" id="Layer_1" xmlns="http://www.w3.org/2000/svg" xmlns:xlink="http://www.w3.org/1999/xlink" x="0px" y="0px"
	 width="200px" height="114.881px" viewBox="0 0 200 114.881" enable-background="new 0 0 200 114.881" xml:space="preserve">
<g>
	<path fill="#231F20" d="M78.063,45.179c2.151,0.959,5.004-2.608,7.491-5.435c3.042-3.461,5.209-6.35,4.777-7.494
		c-0.432-1.143-6.46-2.166-8.908-2.048c-1.632,0.077-3.715,1.449-4.724,5.211C75.562,39.654,77.129,44.76,78.063,45.179z"/>
	<path fill="#231F20" d="M167.223,101.246c26.992-5.315,18.408-35.549,12.461-33.007c-0.443,0.188-1.033,10.339-11.752,18.521
		c-7.594,5.797-16.371,7.28-31.168,6.02c-7.06-0.389-20.193-3.764-29.289-5.49c1.873-3.607,3.459-7.189,4.715-10.486
		c6.024-15.722,8.211-25.09,7.643-26.692c-0.425-1.177-0.525-1.376-3.352-2.212c-2.818-0.837-2.959-0.535-3.649-0.065
		c-0.646,0.44-1.388,3.643-1.783,4.512c-0.731-0.399-5.082-5.208-15.159-0.618c-8.403,3.824-10.72,14.644-11.188,15.672
		c-0.468,1.033-5.765,6.436-8.536,6.436c-0.384-0.005-1.962-6.277,1.521-12.29c3.479-6.009,7.336-7.107,5.907-8.552
		c-1.953-1.969-6.559-3.033-12.509-3.679c-5.956-0.647-10.358,0.344-10.822,0.341c-0.118-0.74-0.485-3.242-2.679-6.766
		c-2.192-3.522-5.427-4.717-5.398-4.884c0.027-0.167,7.018-3.964,9.429-9.704c2.412-5.738,3.049-11.906-1.885-15.456
		c-4.929-3.546-9.299-1.975-9.576-2.195c-0.283-0.221,2.382-4.465,0.039-6.674c-2.347-2.208-4.794-1.61-5.948-1.3
		C43.08,2.987,38.93,5.64,34.02,7.945c-4.905,2.307-11.003,4.77-13.557,2.455c-4.214-3.819,2.73-9.538,2.231-9.969
		c-0.541-0.464-6.928-1.334-10.265,2.406c-2.788,3.123-3.621,8.631-1.374,11.775c4.114,5.757,13.253,4.169,21.748,0.268
		c4.799-2.208,9.859-4.845,10.332-4.823c0.331,0.016-0.376,1.736-0.589,1.994c-0.229,0.275-9.767,3.934-15.237,7.644
		c-5.786,3.924-20.004,11.086-25.47,28.017c-4.753,14.73,0.297,33.646,12.021,34.646c10.783,0.923,18.049-17.983,20.854-25.896
		c2.812-7.917,4.394-10.545,5.033-12.612c3.771-0.984,7.423-0.589,10.221,3.111c2.798,3.702,2.634,4.1,2.199,4.366
		c-0.427,0.269-7.387,1.442-13.434,6.768c-5.547,4.885-9.021,11.465-8.162,17.842c0.5,3.672,4.263,6.535,8.939,6.535
		c11.99,0,18.759-14.447,20.64-22.576c0.724-3.126,0.678-4.355,0.799-4.881c0.884-0.096,1.733-0.096,3.303,0.064
		c1.569,0.162,3.225,0.479,3.37,0.72c0.152,0.239-2.17,3.375-2.684,10.104c-0.514,6.82,2.986,13.279,8.034,13.994
		c5.047,0.717,12.458-7.1,12.881-7.064c0,1.332,1.576,5.05,4.929,6.409c4.93,2.565,9.448,0.483,9.637,1.032
		c0.082,0.236-0.826,2.388-2.421,5.307c-3.08-0.426-10.791-1.051-18.336,0.973c-9.552,2.559-16.523,8.907-16.381,17.605
		c0.08,4.984,4.657,10.725,12.143,10.725c12.168,0,22.612-11.922,29.701-23.886C119.229,94.901,147.766,105.074,167.223,101.246z
		 M29.091,48.558c-4.662,12.371-11.616,26.044-12.5,25.89c-3.901-0.684-4.681-20.974,3.667-35.061
		c8.138-13.723,17.255-19.146,17.811-19.046C38.452,20.41,33.752,36.192,29.091,48.558z M42.821,35.301
		c-0.463-0.081,4.21-16.98,5.34-18.411c0.241-0.302,7.389-1.733,7.056,5.092C54.809,30.301,44.12,35.528,42.821,35.301z
		 M48.765,69.825c-4.712,6.736-9.366,8.229-10.131,7.859c-0.768-0.359-2.368-8.346,3.37-14.813
		c5.147-5.813,10.778-7.183,11.21-7.106C53.631,55.837,53.885,62.5,48.765,69.825z M88.663,98.704
		c-6.711,6.867-11.324,9.47-15.851,7.674c-3.234-1.279-1.815-7.867,5.058-13.166c5.081-3.92,13.571-3.82,17.89-3.811
		C93.797,92.541,91.357,95.954,88.663,98.704z M93.085,66.546c1.168-6.941,9.031-12.509,16.156-9.108
		c0,2.402-6.071,16.918-6.612,17.252C98.679,76.844,91.912,73.526,93.085,66.546z"/>
	<path fill="#231F20" d="M143.389,88.828c13.262,1.089,27.021-9.122,34.189-29.812c4.986-14.382,3.559-28.985,0.607-37.45
		c2.612-1.765,4.838-4.596,4.838-8.159c0-2.502-1.932-4.079-3.34-4.043c-3.312,0.084-3.222,3.269-2.902,3.057
		c1.115-0.744,2.572-0.881,2.443,0.835c-0.158,1.93-2.188,3.556-3.019,3.783c-2.521-6.092-6.798-8.864-12.302-8.752
		c-7.326,0.151-11.889,8.504-8.969,14.562c3.646,7.555,11.914,4.869,15.81,2.712c1.422,8.157,1.485,19.861-3.522,31.877
		c-4.414,10.61-11.763,24.339-21.748,23.494c-8.289-0.703-12.672-16.615-8.572-35.591c3.687-17.079,12.361-27.393,15.656-29.566
		c1.254-0.825-2.552-3.042-6.349-1.557c-5.204,2.042-19.544,14.15-22.683,36.744C119.915,76.981,130.979,87.815,143.389,88.828z
		 M160.975,19.25c-2.31-2.796-0.471-7.616,2.537-7.71c2.54-0.083,3.883,3.229,4.913,5.63c0.359,0.847,0.731,1.883,1.083,3.071
		C166.38,21.504,163.186,21.928,160.975,19.25z"/>
	<path fill="#231F20" d="M190.042,29.482l-0.239-0.054l0.043-0.276c-0.01-2.442-0.361-4.507-1.449-4.818
		c-1.328-0.366-4.715,2.882-4.772,4.653c-0.087,1.599,0.983,3.136,2.254,4.232c-0.026,3.308-0.642,7.933-1.522,10.48
		c0,0,0,0,0.052,0.035c0.407,0.793,1.395,0.762,1.823-0.717c0.824-2.624,1.949-5.304,2.701-8.053
		c2.168,1.032,3.447,2.713,3.235,6.235c-0.239,3.93-1.646,4.981-2.791,4.362c-0.55-0.315-0.789-0.905-0.75-1.502
		c0.079-0.601,0.612-1.188,1.526-1.389c1.474-0.386,1.195-2.554,0.854-4.035c-0.246-0.908-0.523-0.952-1.615-0.177
		c-2.646,1.716-3.467,7.554-0.563,9.186c3.092,1.691,11.116-1.656,11.11-8.082C199.971,34.171,193.921,30.768,190.042,29.482z"/>
</g>
</svg>
